<?xml version="1.0" encoding="iso-8859-1"?>
<!-- Generator: Adobe Illustrator 18.0.0, SVG Export Plug-In . SVG Version: 6.00 Build 0)  -->
<!DOCTYPE svg PUBLIC "-//W3C//DTD SVG 1.1//EN" "http://www.w3.org/Graphics/SVG/1.1/DTD/svg11.dtd">
<svg version="1.1" id="Capa_1" xmlns="http://www.w3.org/2000/svg" xmlns:xlink="http://www.w3.org/1999/xlink" x="0px" y="0px"
	 viewBox="0 0 473.325 473.325" style="enable-background:new 0 0 473.325 473.325;" xml:space="preserve">
<g>
	<path style="fill-rule:evenodd;clip-rule:evenodd;" d="M236.662,473.297C106.162,473.297,0,367.127,0,236.65
		C0,106.197,106.162,0.028,236.662,0.028S473.325,106.197,473.325,236.65C473.325,367.127,367.162,473.297,236.662,473.297z
		 M425.801,267.356c-6.547-2.041-59.293-17.799-119.316-8.197c25.055,68.838,35.256,124.943,37.212,136.571
		C386.67,366.675,417.274,320.656,425.801,267.356z M311.502,413.281c-2.867-16.803-13.988-75.386-40.884-145.254
		c-0.405,0.141-0.826,0.265-1.263,0.421c-108.032,37.619-146.819,112.584-150.271,119.629
		c32.467,25.313,73.297,40.424,117.578,40.424C263.191,428.5,288.496,423.06,311.502,413.281z M94.348,365.024
		c4.332-7.435,56.914-94.473,155.704-126.409c2.501-0.811,5.018-1.559,7.543-2.261c-4.801-10.902-10.029-21.767-15.53-32.521
		c-95.657,28.633-188.484,27.448-196.879,27.262c-0.055,1.948-0.085,3.904-0.085,5.852C45.101,286.154,63.75,331.068,94.348,365.024
		z M49.145,197.723c8.574,0.108,87.49,0.436,177.099-23.334c-31.735-56.432-65.972-103.871-71.03-110.775
		C101.626,88.879,61.56,138.282,49.145,197.723z M191.773,50.747c5.299,7.084,40.088,54.453,71.48,112.131
		c68.129-25.561,96.949-64.287,100.387-69.182c-33.823-30.035-78.309-48.264-126.979-48.264
		C221.201,45.432,206.175,47.271,191.773,50.747z M384.939,115.822c-4.029,5.472-36.145,46.62-106.965,75.51
		c4.459,9.15,8.728,18.439,12.719,27.761c1.396,3.32,2.774,6.609,4.115,9.882c63.742-8.012,127.072,4.824,133.408,6.18
		C427.787,189.945,411.632,148.429,384.939,115.822z"/>
</g>
<g>
</g>
<g>
</g>
<g>
</g>
<g>
</g>
<g>
</g>
<g>
</g>
<g>
</g>
<g>
</g>
<g>
</g>
<g>
</g>
<g>
</g>
<g>
</g>
<g>
</g>
<g>
</g>
<g>
</g>
</svg>
